# Blender v2.93.4 OBJ File: 'untitled.blend'
# www.blender.org
mtllib vector.mtl
o arrow_Cube
v 0.130935 0.008340 0.131806
v 0.132969 0.419564 0.128255
v -0.132903 0.420902 0.130964
v -0.134936 0.009678 0.134515
v -0.137619 0.008464 -0.128101
v -0.135591 0.418647 -0.131643
v 0.130281 0.417310 -0.134353
v 0.128253 0.007126 -0.130811
v 0.319653 0.437473 0.197991
v 0.003287 0.930474 0.196997
v -0.317938 0.440682 0.204489
v -0.322095 0.437195 -0.201695
v -0.000870 0.926987 -0.209187
v 0.315495 0.433986 -0.208192
v -0.324724 0.439672 0.198017
v 0.000466 0.937276 0.190417
v -0.003557 0.933902 -0.202669
v -0.328747 0.436298 -0.195070
v 0.139142 0.424607 -0.129867
v 0.319809 0.426742 -0.198927
v 0.323776 0.430071 0.188766
v 0.141735 0.426782 0.123464
v 0.136684 0.428183 0.134368
v 0.299737 0.428936 0.192043
v -0.298234 0.431945 0.198137
v -0.136407 0.429557 0.137152
v -0.141692 0.428208 0.126352
v -0.322323 0.433322 0.195350
v -0.326291 0.429993 -0.192343
v -0.144285 0.426034 -0.126979
v -0.139407 0.009644 0.128011
v -0.137374 0.420868 0.124460
v -0.139927 0.418726 -0.125050
v -0.141960 0.007502 -0.121499
v -0.139222 0.427195 -0.137905
v -0.302264 0.428565 -0.195598
v 0.295707 0.425556 -0.201692
v 0.133869 0.425822 -0.140688
v -0.137590 0.000931 -0.121487
v 0.128282 -0.000407 -0.124196
v 0.130836 0.001735 0.125314
v -0.135036 0.003073 0.128023
v 0.132718 0.006120 -0.124298
v 0.134751 0.417344 -0.127849
v 0.137305 0.419486 0.121661
v 0.135272 0.008262 0.125212
v 0.002019 0.933874 -0.202726
v 0.006042 0.937248 0.190360
v 0.322272 0.433022 -0.201704
v 0.326295 0.436396 0.191383
vt 0.376432 0.754008
vt 0.493939 0.754008
vt 0.493939 0.995992
vt 0.376432 0.995992
vt 0.376432 0.254008
vt 0.493939 0.254008
vt 0.493939 0.495992
vt 0.376432 0.495992
vt 0.501250 0.754868
vt 0.622632 0.997632
vt 0.501250 0.997632
vt 0.501250 0.254868
vt 0.622632 0.497632
vt 0.501250 0.497632
vt 0.501062 0.004031
vt 0.623938 0.004031
vt 0.623938 0.245969
vt 0.501062 0.245969
vt 0.495519 0.505786
vt 0.499851 0.504549
vt 0.499851 0.745451
vt 0.495519 0.744214
vt 0.495772 0.756740
vt 0.499599 0.755833
vt 0.499599 0.994167
vt 0.495772 0.993260
vt 0.495519 0.005786
vt 0.499851 0.004549
vt 0.499851 0.245451
vt 0.495519 0.244214
vt 0.376432 0.006234
vt 0.493938 0.006234
vt 0.493939 0.243766
vt 0.376432 0.243766
vt 0.495772 0.256740
vt 0.499599 0.255833
vt 0.499599 0.494167
vt 0.495772 0.493260
vt 0.129008 0.506234
vt 0.370992 0.506234
vt 0.370992 0.743766
vt 0.129008 0.743766
vt 0.376432 0.506234
vt 0.493938 0.506234
vt 0.493939 0.743766
vt 0.376432 0.743766
vt 0.625000 0.245969
vt 0.623292 0.250000
vt 0.370992 0.500000
vt 0.375000 0.506234
vt 0.623292 0.000000
vt 0.625000 0.004031
vt 0.376432 0.750000
vt 0.375000 0.743766
vt 0.376432 0.250000
vt 0.375000 0.243766
vt 0.375000 0.006234
vt 0.376432 0.000000
vt 0.501062 0.504031
vt 0.500000 0.996382
vt 0.499897 1.000000
vt 0.499802 1.000000
vt 0.500000 0.761161
vt 0.500000 0.751998
vt 0.501062 0.752123
vt 0.500000 0.261161
vt 0.500000 0.251998
vt 0.501062 0.252123
vt 0.495370 0.006234
vt 0.495370 0.000000
vt 0.495396 0.000000
vt 0.125000 0.743766
vt 0.125000 0.506234
vt 0.129008 0.500000
vt 0.370992 0.750000
vt 0.129008 0.750000
vt 0.623938 0.504031
vt 0.495470 1.000000
vt 0.623938 0.997877
vt 0.623938 1.000000
vt 0.501062 1.000000
vt 0.501062 0.745969
vt 0.493938 1.000000
vt 0.376432 1.000000
vt 0.623938 0.497877
vt 0.623938 0.745969
vn 0.0102 0.0086 0.9999
vn -0.0102 -0.0086 -0.9999
vn -0.8371 0.5471 0.0039
vn 0.0150 -0.9999 0.0084
vn 0.0019 -0.9997 0.0249
vn -0.0028 -0.9997 0.0260
vn -0.0067 -0.9996 0.0261
vn -0.0115 -0.9996 0.0252
vn -0.0249 -0.9997 0.0088
vn -0.9999 0.0050 0.0102
vn -0.0118 -0.9999 -0.0077
vn -0.0071 -0.9999 -0.0088
vn -0.0032 -1.0000 -0.0088
vn 0.0016 -1.0000 -0.0078
vn -0.0049 -1.0000 0.0086
vn 0.9999 -0.0050 -0.0102
vn -0.0040 0.6851 -0.7285
vn 0.6890 -0.4767 -0.5460
vn 0.0109 0.6975 0.7165
vn 0.7272 -0.4867 0.4840
vn -0.7047 -0.4697 -0.5318
vn -0.7220 -0.4794 0.4988
vn 0.2030 -0.7233 -0.6600
vn -0.2101 -0.7098 0.6724
vn 0.2166 -0.7119 0.6680
vn -0.2237 -0.7212 -0.6557
vn 0.6937 -0.5783 -0.4295
vn 0.7024 -0.5709 0.4251
vn -0.7080 -0.5712 -0.4152
vn -0.6993 -0.5639 0.4393
vn -0.8326 -0.5538 0.0133
vn -0.0110 -0.6598 -0.7514
vn 0.8241 -0.0090 -0.5664
vn 0.8355 0.0006 0.5495
vn -0.8355 -0.0006 -0.5495
vn 0.0050 1.0000 -0.0086
vn 0.0037 -0.7010 0.7132
vn 0.8270 -0.5621 -0.0036
vn 0.6342 0.4049 -0.6586
vn -0.0125 -0.9996 0.0249
vn 0.6475 0.4161 0.6384
vn -0.6302 0.4225 0.6514
vn -0.0112 -0.5940 -0.8044
vn 0.9300 -0.3675 -0.0064
vn -0.9336 -0.3582 0.0126
vn 0.0054 -0.5801 0.8145
vn 0.0026 -1.0000 -0.0076
vn 0.0029 -0.9997 0.0247
vn -0.0128 -0.9999 -0.0074
vn -0.8241 0.0090 0.5664
vn -0.8603 -0.5096 0.0132
vn 0.8552 -0.5182 -0.0043
vn -0.6434 0.4114 -0.6456
vn 0.8424 0.5386 -0.0132
usemtl Material.001
s 1
f 1/1/1 2/2/1 3/3/1 4/4/1
f 5/5/2 6/6/2 7/7/2 8/8/2
f 9/9/1 10/10/1 11/11/1
f 12/12/2 13/13/2 14/14/2
f 15/15/3 16/16/3 17/17/3 18/18/3
f 19/19/4 20/20/4 21/21/4 22/22/4
f 23/23/5 24/24/6 25/25/7 26/26/8
f 27/27/9 28/28/9 29/29/9 30/30/9
f 31/31/10 32/32/10 33/33/10 34/34/10
f 35/35/11 36/36/12 37/37/13 38/38/14
f 39/39/15 40/40/15 41/41/15 42/42/15
f 43/43/16 44/44/16 45/45/16 46/46/16
f 17/17/17 47/47/17 13/48/17
f 40/40/18 8/49/18 43/50/18
f 16/16/19 10/51/19 48/52/19
f 46/46/20 1/53/20 41/54/20
f 34/34/21 5/55/21 39/56/21
f 31/31/22 42/57/22 4/58/22
f 49/59/23 20/20/23 37/37/23 14/14/23
f 25/25/24 11/60/24 15/61/24 28/62/24
f 9/9/25 24/63/25 21/64/25 50/65/25
f 12/12/26 36/66/26 29/67/26 18/68/26
f 7/7/27 38/38/27 19/19/27 44/44/27
f 45/45/28 22/22/28 23/23/28 2/2/28
f 6/6/29 33/33/29 30/30/29 35/35/29
f 27/27/30 32/69/30 3/70/30 26/71/30
f 39/39/31 42/42/31 31/72/31 34/73/31
f 40/40/32 39/39/32 5/74/32 8/49/32
f 44/44/33 43/43/33 8/8/33 7/7/33
f 2/2/34 1/1/34 46/46/34 45/45/34
f 6/6/35 5/5/35 34/34/35 33/33/35
f 17/17/36 16/16/36 48/52/36 47/47/36
f 42/42/37 41/41/37 1/75/37 4/76/37
f 41/41/38 40/40/38 43/43/38 46/46/38
f 47/77/39 49/59/39 14/14/39 13/13/39
f 26/26/8 25/25/7 28/62/40 27/78/40
f 10/10/41 9/9/41 50/65/41 48/79/41
f 11/11/42 10/10/42 16/80/42 15/81/42
f 12/12/43 14/14/43 37/37/43 36/36/43
f 49/59/44 50/82/44 21/21/44 20/20/44
f 15/15/45 18/18/45 29/29/45 28/28/45
f 9/9/46 11/11/46 25/25/46 24/24/46
f 20/20/47 19/19/47 38/38/14 37/37/13
f 24/24/6 23/23/5 22/22/48 21/21/48
f 36/36/12 35/35/11 30/30/49 29/29/49
f 4/4/50 3/3/50 32/83/50 31/84/50
f 23/23/46 26/26/46 3/3/46 2/2/46
f 27/27/51 30/30/51 33/33/51 32/32/51
f 19/19/52 22/22/52 45/45/52 44/44/52
f 35/35/43 38/38/43 7/7/43 6/6/43
f 13/13/53 12/12/53 18/68/53 17/85/53
f 49/59/54 47/77/54 48/86/54 50/82/54
